<?xml version="1.0" encoding="utf-8"?>
<!-- Generator: Adobe Illustrator 19.2.1, SVG Export Plug-In . SVG Version: 6.00 Build 0)  -->
<svg version="1.1" id="layer" xmlns="http://www.w3.org/2000/svg" xmlns:xlink="http://www.w3.org/1999/xlink" x="0px" y="0px"
	 viewBox="0 0 652 652" style="enable-background:new 0 0 652 652;" xml:space="preserve">
<style type="text/css">
	.st0{fill:#E61C24;}
	.st1{fill-rule:evenodd;clip-rule:evenodd;fill:#FFFFFF;}
	.st2{fill:#FFFFFF;}
</style>
<rect x="50.8" y="71.9" class="st0" width="508.5" height="500"/>
<g>
	<path class="st0" d="M575,79.4v3.8h2.9c1.8,0,2.7-0.7,2.7-1.9c0-1.3-0.8-1.9-2.4-1.9H575 M573,90.3V77.7h5.7c1.2,0,2.2,0.3,2.9,0.9
		c0.8,0.6,1.2,1.4,1.2,2.5s-0.4,1.8-1.1,2.5c-0.7,0.7-1.6,1-2.7,1.1c0.8,0.3,1.5,0.9,2.1,1.8l2.5,3.8h-2.5l-1.9-3.2
		c-0.8-1.4-1.8-2.1-3.1-2.1H575v5.3H573z M568.2,83.9c0,2.7,1,5.1,2.9,7c1.9,1.9,4.3,2.9,7,2.9c2.8,0,5.1-0.9,7-2.9c2-2,3-4.3,3-7
		c0-2.8-1-5.1-3-7c-1.9-2-4.2-3-7-3c-2.8,0-5.1,1-7,3C569.2,78.8,568.2,81.2,568.2,83.9 M578.2,95.8c-3.3,0-6.1-1.2-8.5-3.5
		c-2.3-2.3-3.5-5.1-3.5-8.4c0-3.3,1.2-6.1,3.5-8.4c2.4-2.3,5.2-3.5,8.5-3.5c3.3,0,6.1,1.2,8.4,3.5c2.3,2.3,3.5,5.1,3.5,8.4
		c0,3.3-1.2,6.1-3.5,8.4C584.2,94.7,581.5,95.8,578.2,95.8"/>
	<path class="st1" d="M409.9,161.1l-48.2,136.6h-72.2c29.7-4.7,53.9-18.2,53.9-18.2s-87.9,41-127.8-29.3c0,0,42.6,0.4,91.8-39.2
		c40.1-33.9,49.6-44,78.1-47.4c0,0,1.5-0.5,2.7-1.2c1.1-0.7,2-1.4,2-1.4H409.9 M247.6,161.1l-15.9,45.4
		c10.6,14.3,35.9,17.5,77.6-15.9c21.4-17.2,37.3-25.5,48.5-29.7L247.6,161.1z M252.1,297.8c0,0-25.9-3.1-43.7-25.3l-8.8,25.2
		L252.1,297.8"/>
	<path class="st2" d="M233.7,391.3l-1.5,4.3c-5.8-1.4-11-2.1-15.9-2.1c-7.6,0-12,1.5-13,4.5c-0.5,1.2-0.1,2.2,1.1,3
		c1.2,0.7,3.6,1.5,7.1,2.3l5.1,1.1l4.8,1c7.4,1.6,10.4,4.4,9.1,8.3c-1.1,3-3.9,5.3-8.6,7.1c-4.7,1.8-10.5,2.6-17.3,2.6
		c-4.8,0-10.7-0.5-17.8-1.8l1.7-4.8c6.8,2,12.7,3,17.7,3c4.1,0,7.6-0.5,10.5-1.4c2.8-0.9,4.5-2.2,5.1-3.9c0.5-1.2,0-2.1-1.2-2.9
		c-1.2-0.7-3.9-1.6-8.2-2.5l-5.2-1.2c-5.3-1.2-8.7-2.5-10.5-3.7c-1.7-1.3-2.2-3-1.5-5.1c1-2.9,3.5-5.1,7.4-6.7
		c3.9-1.6,8.9-2.3,15-2.3C222.5,389.8,227.9,390.3,233.7,391.3"/>
	<path class="st2" d="M204.8,421.7c6.7,0,12.2-0.9,16.7-2.5c4.5-1.7,6.8-3.8,7.6-6.1c0.1-0.4,0.2-0.8,0.2-1.1c0-0.9-0.4-1.7-1.7-2.7
		c-1.2-0.9-3.5-1.8-6.5-2.5l-4.8-1.1l-5.1-1.1c-3.7-0.8-6.1-1.5-7.6-2.5c-1.1-0.7-2.1-1.9-2-3.4c0-0.5,0.2-0.9,0.3-1.4
		c0.7-2.1,2.6-3.6,5.1-4.4c2.5-0.8,5.5-1.2,9.5-1.2c4.6,0,9.5,0.7,14.8,1.8l0.4-1.1c-5.1-0.8-9.8-1.2-14.1-1.2
		c-5.9,0-10.8,0.8-14.4,2.2c-3.6,1.5-5.6,3.4-6.4,5.7c-0.2,0.5-0.2,0.8-0.2,1.2c0,0.9,0.2,1.4,1.1,2.2c1.4,1,4.8,2.3,9.9,3.5
		l5.3,1.2c4.4,1,7.1,1.8,8.6,2.8c1.2,0.7,2.2,1.9,2.1,3.5c0,0.5-0.1,0.9-0.2,1.3c-0.9,2.3-3.1,3.8-6.1,4.8
		c-3.1,1.1-6.8,1.5-11.1,1.5c-4.8,0-10.3-0.9-16.6-2.6l-0.6,1.6C195.3,421.2,200.5,421.7,204.8,421.7 M186.6,423.1l-1.8-0.3l2.8-8.1
		l1.5,0.5c6.7,1.9,12.4,2.9,17.2,2.9c4.1,0,7.4-0.5,10-1.3c2.6-0.9,3.8-2,4-2.9l0.1-0.3c0-0.2,0-0.3-0.6-0.7
		c-0.9-0.5-3.6-1.4-7.8-2.4l-5.3-1.2c-5.3-1.3-8.9-2.5-11-4c-1.6-1.2-2.5-2.9-2.4-4.8c0-0.7,0.2-1.4,0.4-2.1c1.2-3.5,4.2-6,8.3-7.7
		c4.2-1.6,9.4-2.5,15.6-2.5c5.1,0,10.6,0.5,16.5,1.5l-0.3,1.6l0.3-1.6l1.8,0.3l-2.6,7.4l-1.4-0.3c-5.6-1.4-10.8-2.1-15.4-2.1
		c-3.7,0-6.6,0.4-8.5,1c-1.9,0.7-2.7,1.5-3,2.4l0,0.4c0,0.1,0,0.3,0.6,0.7c0.8,0.5,3.2,1.3,6.7,2.1l5,1.1l4.8,1
		c3.3,0.7,5.8,1.7,7.7,3c1.8,1.3,3,3.2,2.9,5.3c0,0.7-0.2,1.4-0.4,2.1c-1.3,3.6-4.7,6.2-9.6,8.1c-4.9,1.8-10.9,2.8-17.8,2.8
		C199.8,424.9,193.8,424.3,186.6,423.1"/>
	<path class="st2" d="M422.6,391.3l-1.5,4.3c-5.7-1.4-11-2.1-15.8-2.1c-7.6,0-12,1.5-13,4.5c-0.4,1.2,0,2.2,1.1,3
		c1.2,0.7,3.6,1.5,7.1,2.3l5.1,1.1l4.8,1c7.4,1.6,10.5,4.4,9.1,8.3c-1.1,3-3.9,5.3-8.5,7.1c-4.8,1.8-10.5,2.6-17.3,2.6
		c-4.8,0-10.7-0.5-17.8-1.8l1.7-4.8c6.8,2,12.7,3,17.6,3c4.2,0,7.7-0.5,10.5-1.4c2.8-0.9,4.6-2.2,5.1-3.9c0.5-1.2,0-2.1-1.2-2.9
		c-1.2-0.7-3.9-1.6-8.2-2.5l-5.2-1.2c-5.3-1.2-8.7-2.5-10.4-3.7c-1.8-1.3-2.3-3-1.5-5.1c1-2.9,3.4-5.1,7.4-6.7
		c3.9-1.6,8.9-2.3,15-2.3C411.4,389.8,416.7,390.3,422.6,391.3"/>
	<path class="st2" d="M393.6,421.7c6.7,0,12.3-0.9,16.7-2.5c4.5-1.7,6.8-3.8,7.6-6.1c0.1-0.5,0.2-0.8,0.2-1.1c0-0.9-0.4-1.7-1.7-2.7
		c-1.2-0.9-3.5-1.8-6.5-2.5l-4.8-1.1l-5.1-1.1c-3.7-0.8-6.1-1.5-7.6-2.5c-1.2-0.7-2.1-1.9-2-3.4c0-0.5,0.1-0.9,0.2-1.3
		c0.8-2.1,2.7-3.6,5.1-4.4c2.5-0.8,5.6-1.2,9.5-1.2c4.6,0,9.4,0.7,14.7,1.8l0.4-1.1c-5.1-0.8-9.8-1.2-14.1-1.2
		c-6,0-10.8,0.8-14.5,2.2c-3.6,1.5-5.6,3.4-6.4,5.7c-0.2,0.5-0.2,0.8-0.2,1.2c0,0.9,0.2,1.4,1.2,2.2c1.4,1,4.8,2.3,9.9,3.5l5.3,1.2
		c4.4,1,7.1,1.8,8.7,2.8c1.1,0.7,2.1,1.9,2.1,3.4c0,0.5-0.1,0.9-0.3,1.3c-0.8,2.4-3.1,3.9-6.1,4.9c-3,1.1-6.7,1.5-11,1.5
		c-4.8,0-10.3-0.9-16.6-2.6l-0.6,1.6C384.1,421.2,389.3,421.7,393.6,421.7 M375.4,423.1l-1.8-0.3l2.8-8.1l1.5,0.5
		c6.7,1.9,12.4,2.9,17.2,2.9c4.1,0,7.4-0.5,9.9-1.3c2.6-0.9,3.8-2.1,4.1-2.9l0-0.4c0-0.1,0-0.3-0.6-0.7c-0.9-0.5-3.6-1.4-7.8-2.4
		l-5.2-1.2c-5.3-1.3-8.8-2.5-11-4c-1.6-1.2-2.5-2.9-2.5-4.8c0-0.7,0.2-1.4,0.4-2.1c1.2-3.5,4.2-6,8.3-7.7c4.2-1.6,9.4-2.5,15.7-2.5
		c5.1,0,10.5,0.5,16.4,1.5l-0.3,1.6l0.3-1.6l1.8,0.3l-2.6,7.4l-1.5-0.3c-5.6-1.4-10.7-2.1-15.4-2.1c-3.7,0-6.6,0.4-8.5,1
		c-1.9,0.7-2.7,1.5-3,2.3l0,0.4c0,0.2,0,0.3,0.6,0.7c0.8,0.5,3.2,1.3,6.7,2.1l5,1.1l4.8,1c3.3,0.7,5.8,1.7,7.7,3
		c1.8,1.3,3,3.2,2.9,5.3c0,0.7-0.2,1.4-0.4,2.1c-1.3,3.6-4.7,6.2-9.5,8.1c-5,1.8-10.9,2.8-17.9,2.8
		C388.6,424.9,382.6,424.3,375.4,423.1"/>
	<polygon class="st2" points="241.8,422.1 253,390.5 261.5,390.5 250.3,422.1 	"/>
	<path class="st2" d="M249.2,420.6l10.1-28.4h-5.2l-10.1,28.4H249.2z M241.8,423.7l0.1-1.6l1.5,0.5l-1.5-0.5L241.8,423.7h-2.2
		l12.3-34.8h11.8l-12.3,34.8H241.8"/>
	<polygon class="st2" points="268.8,422.5 279.9,390.8 288.3,390.8 278.5,418.9 307.9,418.9 306.6,422.5 	"/>
	<path class="st2" d="M305.5,420.9l0.2-0.5h-29.4l9.8-28.1H281l-9.9,28.6H305.5z M268.8,424.1l0-1.6l1.5,0.5l-1.5-0.5L268.8,424.1
		h-2.2l12.2-34.9h11.7l-9.8,28.1h29.4l-2.4,6.8H268.8"/>
	<polygon class="st2" points="319.7,422.5 330.8,390.8 339.3,390.8 333.8,406.4 362.5,390.8 371.1,390.8 343.5,405.8 364.2,422.5 
		353.9,422.5 333.8,406.4 328.2,422.5 	"/>
	<path class="st2" d="M354.5,420.9h5.1l-19-15.4l24.3-13.2h-2.1l-26.1,14.2L354.5,420.9z M327.1,420.9l10-28.6h-5.2l-10.1,28.6
		H327.1z M353.3,424.1L334.5,409l-5.3,15.1h-9.7l0.1-1.6l1.5,0.5l-1.5-0.5l-0.1,1.6h-2.2l12.3-34.9h11.8l-4.9,13.8l25.5-13.8h9
		l0.7,3L346.3,406l22.4,18.1H353.3"/>
	<path class="st2" d="M220.2,355.9c-23-7.8-38.9,7.6-38.9,7.6c27.5-15,46.3,1,46.3,1L220.2,355.9"/>
	<path class="st2" d="M149.7,369.6h-18.1L101.9,355c-2-1-2.9-2-2.5-2.8c0.3-0.8,1.8-1.8,4.6-2.8l40.5-15.1h18l-48.5,18L149.7,369.6
		 M90.7,369.6H78.5l12.8-35.4h12.3L90.7,369.6"/>
	<path class="st2" d="M221.6,337.6c-0.7-0.9-1.7-1.7-3.2-2.3c-1.7-0.8-3.4-1.1-5.2-1.1c-1.6,0-3.7,0.4-6,1.2
		c-1.9,0.7-3.5,1.4-4.8,2.3l-49.9,31.9h15.8l41.3-26.1l22,26.1l15.8,0.1L221.6,337.6"/>
	<path class="st2" d="M417.6,355.9c-23-7.8-38.9,7.6-38.9,7.6c27.5-15,46.3,1,46.3,1L417.6,355.9"/>
	<path class="st2" d="M419,337.6c-0.7-0.9-1.8-1.7-3.2-2.3c-1.7-0.8-3.4-1.1-5.2-1.1c-1.6,0-3.6,0.4-6,1.2c-2,0.7-3.5,1.4-4.8,2.3
		l-49.9,31.9h15.8l41.3-26.1l13.7,16.3l8.3,9.8l15.8,0.1L419,337.6"/>
	<polygon class="st2" points="310.3,369.6 249.4,369.6 262.3,334.3 274.5,334.3 263.9,363.5 312.5,363.5 	"/>
	<polygon class="st2" points="384.7,334.3 341.1,357.9 336.9,369.6 324.7,369.6 329,357.8 301.6,334.3 317.4,334.3 337.6,351.6 
		368.8,334.3 	"/>
	<path class="st2" d="M519.3,366.5c-0.8,2.3-2.8,3.4-5.9,3.4c-2.3,0-4.6-0.7-6.9-2.1l-36.9-22.8l-8.9,24.6h-12.2l11.8-32.3
		c0.2-0.9,1-1.6,2.1-2.2c1.1-0.6,2.5-0.9,4.2-0.9c2.3,0,4.4,0.6,6.4,1.8l36.9,22.7l8.9-24.5H531L519.3,366.5"/>
	<polygon class="st2" points="90,453.4 90.4,450.7 104,450.7 103.6,453.4 98.5,453.4 96.7,466.6 93.2,466.6 95.1,453.4 	"/>
	<path class="st2" d="M104.5,466.6l2.2-15.9h3.2l-0.9,6.5c1.2-1,2.4-1.5,3.6-1.5c0.9,0,1.6,0.3,2.1,0.9c0.5,0.6,0.7,1.3,0.7,2.3
		c0,0.2-0.1,0.7-0.2,1.8l-0.8,5.9h-3.2l0.9-6.1c0-0.7,0.1-1.1,0.1-1.2c0-0.8-0.3-1.2-0.9-1.2c-0.8,0-1.7,0.5-2.6,1.4l-1,7.1H104.5"
		/>
	<path class="st2" d="M125.2,459.5c0-0.3-0.1-0.7-0.4-0.9c-0.3-0.3-0.7-0.4-1.2-0.4c-0.9,0-1.7,0.6-2.1,1.8h3.7L125.2,459.5
		 M128.3,460.2c0,0.5,0,0.9-0.2,1.6h-6.9c0,1.8,0.8,2.7,2.5,2.7c0.5,0,1.1-0.1,1.8-0.3c0.7-0.2,1.4-0.5,2.1-0.8l-0.5,2.7
		c-0.5,0.2-1,0.4-1.6,0.5c-0.6,0.2-1.3,0.2-2,0.2c-1.7,0-3-0.5-3.9-1.4c-1-0.9-1.4-2.1-1.4-3.7c0-1.6,0.5-3,1.6-4.1
		c1.1-1.1,2.5-1.7,4.3-1.7c1.3,0,2.3,0.4,3.1,1.2C127.9,457.8,128.3,458.9,128.3,460.2"/>
	<polygon class="st2" points="137.9,456 141,456 142.3,462.2 145.4,456 147.3,456 148.4,462.2 151.4,456 154.7,456 148.7,466.8 
		146.7,466.8 145.6,461.3 142.7,466.8 140.7,466.8 	"/>
	<path class="st2" d="M159.3,461.9c0,0.7,0.2,1.2,0.6,1.7c0.4,0.4,0.9,0.6,1.5,0.6c0.8,0,1.5-0.3,2-1c0.5-0.7,0.7-1.6,0.7-2.5
		c0-0.7-0.2-1.3-0.6-1.7c-0.4-0.4-0.9-0.6-1.5-0.6c-0.8,0-1.4,0.4-1.9,1.1C159.6,460.1,159.3,461,159.3,461.9 M156.1,461.7
		c0-1.7,0.6-3.1,1.8-4.2c1.2-1.1,2.6-1.6,4.3-1.6c1.5,0,2.8,0.5,3.7,1.4c0.9,0.9,1.4,2.1,1.4,3.6c0,1.7-0.5,3.1-1.7,4.3
		c-1.1,1.2-2.5,1.7-4.2,1.7c-1.5,0-2.8-0.5-3.8-1.4C156.6,464.5,156.1,463.2,156.1,461.7"/>
	<path class="st2" d="M172.9,466.6h-3.1l1.5-10.6h3.1l-0.2,1.6c0.7-0.7,1.2-1.2,1.5-1.5c0.3-0.2,0.7-0.3,1-0.3
		c0.6,0,1.2,0.4,1.8,1.2l-1.4,2.9c-0.5-0.8-0.9-1.2-1.4-1.2c-0.4,0-0.8,0.2-1.2,0.6c-0.4,0.3-0.6,0.7-0.7,1L172.9,466.6"/>
	<polygon class="st2" points="179.3,466.6 181.5,450.7 184.7,450.7 182.4,466.6 	"/>
	<path class="st2" d="M189.5,461.7c0,0.8,0.2,1.4,0.7,1.8c0.5,0.4,1.2,0.7,2.1,0.7l0.8-0.1l0.8-5.5l-0.8,0c-1.1,0-2,0.3-2.7,0.9
		C189.8,460.1,189.5,460.8,189.5,461.7 M192.4,466.8c-1.9,0-3.4-0.5-4.5-1.4c-1.1-0.9-1.6-2.1-1.6-3.7c0-1.6,0.6-3,1.8-4.2
		s2.8-1.7,4.7-1.7c0.5,0,0.9,0,1.5,0.1l0.7-5.2h3.2l-2.2,15.7C194.9,466.7,193.7,466.8,192.4,466.8"/>
	<path class="st2" d="M200,457.2l0.4-1.4c0.3,0,0.7-0.2,1.2-0.5c0.4-0.3,0.7-0.7,0.8-1.2c-0.7-0.3-1.1-0.9-1.1-1.7
		c0-0.5,0.2-0.9,0.6-1.3c0.4-0.4,0.8-0.5,1.4-0.5c0.6,0,1.2,0.2,1.6,0.7c0.4,0.5,0.6,1.1,0.6,1.7c0,1.1-0.5,2.1-1.5,3
		C202.9,456.7,201.6,457.2,200,457.2"/>
	<path class="st2" d="M214.1,456.8l-0.2,2.5c-0.2-0.2-0.7-0.3-1.4-0.6c-0.7-0.2-1.2-0.3-1.6-0.3c-0.5,0-0.7,0.2-0.7,0.5
		c0,0.3,0.4,0.8,1.1,1.4c0.7,0.5,1.2,0.9,1.5,1.2c0.6,0.7,0.9,1.4,0.9,2.1c0,1-0.4,1.8-1.1,2.4c-0.7,0.7-1.6,0.9-2.8,0.9
		c-1.4,0-2.6-0.3-3.6-1l0.5-2.3c0.2,0.1,0.6,0.2,1.2,0.5c0.7,0.2,1.2,0.3,1.6,0.3c0.7,0,1-0.2,1-0.6c0-0.3-0.3-0.7-0.9-1.2
		c-1.1-0.9-1.8-1.4-2.1-1.9s-0.5-0.9-0.5-1.4c0-1.1,0.4-1.9,1.1-2.5c0.7-0.6,1.6-0.9,2.8-0.9C211.9,455.8,213,456.1,214.1,456.8"/>
	<polygon class="st2" points="223.4,466.6 225.7,450.7 228.8,450.7 226.6,466.6 	"/>
	<path class="st2" d="M237.6,458.4c-1.2,0-2.2,0.4-2.8,1.2c-0.7,0.8-1,1.8-1,2.9c0,1.3,0.5,2,1.6,2c0.3,0,0.7-0.1,1.2-0.3
		c0.4-0.2,0.8-0.5,1-0.7l0.7-5.1H237.6 M241.7,456.2l-1.4,10.4h-3.2l0.1-1.1c-0.5,0.4-1,0.7-1.5,0.9c-0.5,0.2-1,0.3-1.6,0.3
		c-1.1,0-1.9-0.4-2.6-1.3c-0.7-0.9-1-2-1-3.3c0-1.9,0.7-3.5,2-4.6c1.4-1.2,3.2-1.8,5.7-1.8C239.5,455.8,240.7,455.9,241.7,456.2"/>
	<path class="st2" d="M246.9,466.6h-3.1l1.5-10.6h3.1l-0.2,1.6c0.7-0.7,1.2-1.2,1.5-1.5c0.3-0.2,0.7-0.3,1-0.3
		c0.6,0,1.2,0.4,1.8,1.2l-1.4,2.9c-0.5-0.8-0.9-1.2-1.4-1.2c-0.5,0-0.9,0.2-1.2,0.6c-0.4,0.3-0.6,0.7-0.7,1L246.9,466.6"/>
	<path class="st2" d="M259.6,459.7c0-0.5-0.2-0.8-0.4-1.1c-0.2-0.3-0.6-0.5-1.1-0.5c-1.2,0-1.8,0.7-1.8,2.3c0,0.4,0.1,0.7,0.4,1
		c0.2,0.3,0.6,0.5,1.2,0.5C259,461.9,259.6,461.2,259.6,459.7 M259.6,468.9c0-0.3-0.2-0.5-0.6-0.7c-0.4-0.2-1.1-0.4-2.3-0.6
		c-1.4,0.1-2,0.5-2,1.2c0,0.7,0.8,1,2.4,1C258.8,469.8,259.6,469.5,259.6,468.9 M263.7,458.4h-1.7c0.3,0.5,0.4,1,0.4,1.7
		c0,0.8-0.3,1.6-0.9,2.3c-0.6,0.8-1.5,1.2-2.6,1.4c-0.4,0-0.9,0.1-1.7,0.1c-0.8,0-1.2,0.2-1.2,0.6l0.3,0.4c0.2,0.1,0.7,0.2,1.6,0.3
		c1,0.2,1.6,0.3,1.8,0.4c1.8,0.5,2.8,1.5,2.8,3c0,2.2-1.8,3.3-5.4,3.3c-1.6,0-2.8-0.2-3.7-0.6c-0.9-0.5-1.4-1.1-1.4-1.9
		c0-1,0.9-1.8,2.6-2.3c-1-0.5-1.5-1.2-1.5-2c0-1,0.7-1.7,2.2-2c-1.3-0.7-1.9-1.7-1.9-3c0-1,0.4-1.9,1.3-2.7c0.8-0.9,2-1.3,3.6-1.3
		h5.8L263.7,458.4"/>
	<path class="st2" d="M272.6,459.5c0-0.3-0.1-0.7-0.4-0.9c-0.2-0.3-0.6-0.4-1.2-0.4c-0.9,0-1.7,0.6-2.1,1.8h3.6L272.6,459.5
		 M275.7,460.2c0,0.5,0,0.9-0.2,1.6h-6.9c0,1.8,0.8,2.7,2.5,2.7c0.5,0,1.1-0.1,1.8-0.3c0.7-0.2,1.4-0.5,2.1-0.8l-0.6,2.7
		c-0.5,0.2-1,0.4-1.6,0.5c-0.6,0.2-1.3,0.2-2.1,0.2c-1.6,0-2.9-0.5-3.9-1.4c-1-0.9-1.4-2.1-1.4-3.7c0-1.6,0.5-3,1.6-4.1
		c1.1-1.1,2.5-1.7,4.3-1.7c1.2,0,2.3,0.4,3.1,1.2C275.3,457.8,275.7,458.9,275.7,460.2"/>
	<path class="st2" d="M285.8,456.8l-0.2,2.5c-0.2-0.2-0.7-0.3-1.4-0.6c-0.7-0.2-1.2-0.3-1.6-0.3c-0.5,0-0.7,0.2-0.7,0.5
		c0,0.3,0.4,0.8,1.1,1.4c0.7,0.5,1.2,0.9,1.5,1.2c0.6,0.7,0.9,1.4,0.9,2.1c0,1-0.4,1.8-1.1,2.4c-0.7,0.7-1.6,0.9-2.8,0.9
		c-1.4,0-2.6-0.3-3.6-1l0.5-2.3c0.2,0.1,0.6,0.2,1.2,0.5c0.7,0.2,1.2,0.3,1.6,0.3c0.7,0,1-0.2,1-0.6c0-0.3-0.3-0.7-0.9-1.2
		c-1.1-0.9-1.8-1.4-2.1-1.9s-0.5-0.9-0.5-1.4c0-1.1,0.4-1.9,1.1-2.5c0.7-0.6,1.6-0.9,2.8-0.9C283.6,455.8,284.7,456.1,285.8,456.8"
		/>
	<path class="st2" d="M290.4,453.9h3.1l-0.5,2.2h2.4l-0.5,2.3h-2.4l-0.5,3.3c-0.1,0.5-0.1,0.9-0.1,1.2c0,0.9,0.3,1.4,0.9,1.4
		c0.3,0,0.7-0.1,1.1-0.2c0.4-0.2,0.7-0.3,0.8-0.4v2.5c-0.9,0.5-1.8,0.7-2.6,0.7c-1,0-1.9-0.3-2.5-0.9c-0.6-0.6-0.9-1.5-0.9-2.4
		c0-0.3,0-0.7,0.2-1.2l0.7-3.8h-2.2l0.4-2.3h2.2L290.4,453.9"/>
	<path class="st2" d="M312.1,456.8l-0.2,2.5c-0.2-0.2-0.7-0.3-1.4-0.6c-0.7-0.2-1.2-0.3-1.6-0.3c-0.5,0-0.7,0.2-0.7,0.5
		c0,0.3,0.4,0.8,1.1,1.4c0.7,0.5,1.2,0.9,1.5,1.2c0.6,0.7,0.9,1.4,0.9,2.1c0,1-0.4,1.8-1.1,2.4c-0.7,0.7-1.6,0.9-2.8,0.9
		c-1.4,0-2.6-0.3-3.7-1l0.5-2.3c0.2,0.1,0.6,0.2,1.2,0.5c0.6,0.2,1.2,0.3,1.6,0.3c0.7,0,1-0.2,1-0.6c0-0.3-0.3-0.7-0.9-1.2
		c-1.1-0.9-1.7-1.4-2.1-1.9s-0.5-0.9-0.5-1.4c0-1.1,0.4-1.9,1.1-2.5c0.7-0.6,1.6-0.9,2.8-0.9C309.8,455.8,311,456.1,312.1,456.8"/>
	<path class="st2" d="M315.8,453.1c0-0.5,0.1-0.9,0.5-1.2c0.3-0.3,0.7-0.5,1.1-0.5c0.5,0,0.9,0.2,1.2,0.5c0.3,0.3,0.5,0.7,0.5,1.2
		s-0.2,0.9-0.5,1.2c-0.3,0.3-0.7,0.5-1.2,0.5c-0.5,0-0.9-0.2-1.1-0.5C316,453.9,315.8,453.6,315.8,453.1 M314,466.6l1.5-10.6h3.1
		l-1.5,10.6H314"/>
	<polygon class="st2" points="321,466.6 323.2,450.7 326.4,450.7 324.1,466.6 	"/>
	<polygon class="st2" points="331.6,460.6 335.4,456 339.3,456 335.1,461 339.1,466.6 335.3,466.6 331.5,461.4 330.8,466.6 
		327.6,466.6 329.8,450.7 333,450.7 	"/>
	<path class="st2" d="M355.4,456.8l-0.2,2.5c-0.2-0.2-0.7-0.3-1.4-0.6c-0.7-0.2-1.2-0.3-1.6-0.3c-0.5,0-0.7,0.2-0.7,0.5
		c0,0.3,0.4,0.8,1.1,1.4c0.7,0.5,1.2,0.9,1.5,1.2c0.6,0.7,0.9,1.4,0.9,2.1c0,1-0.3,1.8-1.1,2.4c-0.7,0.7-1.6,0.9-2.8,0.9
		c-1.4,0-2.6-0.3-3.6-1l0.5-2.3c0.2,0.1,0.6,0.2,1.2,0.5c0.7,0.2,1.2,0.3,1.6,0.3c0.7,0,1-0.2,1-0.6c0-0.3-0.3-0.7-0.9-1.2
		c-1.1-0.9-1.8-1.4-2.1-1.9c-0.3-0.5-0.5-0.9-0.5-1.4c0-1.1,0.4-1.9,1.1-2.5c0.7-0.6,1.6-0.9,2.8-0.9
		C353.2,455.8,354.3,456.1,355.4,456.8"/>
	<path class="st2" d="M364.7,458.4c-1.2,0-2.2,0.4-2.8,1.2c-0.7,0.8-1,1.8-1,2.9c0,1.3,0.5,2,1.6,2c0.3,0,0.7-0.1,1.2-0.3
		c0.4-0.2,0.8-0.5,1-0.7l0.7-5.1H364.7 M368.8,456.2l-1.5,10.4h-3.1l0.1-1.1c-0.5,0.4-1,0.7-1.5,0.9c-0.5,0.2-1,0.3-1.6,0.3
		c-1.1,0-2-0.4-2.7-1.3c-0.7-0.9-1-2-1-3.3c0-1.9,0.7-3.5,2.1-4.6c1.4-1.2,3.2-1.8,5.7-1.8C366.6,455.8,367.8,455.9,368.8,456.2"/>
	<path class="st2" d="M374.1,466.6h-3.1l1.5-10.6h3.1l-0.2,1.6c0.7-0.7,1.2-1.2,1.5-1.5c0.3-0.2,0.7-0.3,1-0.3
		c0.5,0,1.2,0.4,1.8,1.2l-1.4,2.9c-0.5-0.8-0.9-1.2-1.4-1.2c-0.4,0-0.9,0.2-1.2,0.6c-0.4,0.3-0.6,0.7-0.7,1L374.1,466.6"/>
	<path class="st2" d="M387.5,459.5c0-0.3-0.1-0.7-0.4-0.9c-0.2-0.3-0.6-0.4-1.2-0.4c-0.9,0-1.7,0.6-2.1,1.8h3.6L387.5,459.5
		 M390.6,460.2c0,0.5,0,0.9-0.2,1.6h-6.9c0,1.8,0.8,2.7,2.5,2.7c0.5,0,1.1-0.1,1.8-0.3c0.7-0.2,1.4-0.5,2.1-0.8l-0.6,2.7
		c-0.5,0.2-1,0.4-1.6,0.5c-0.6,0.2-1.3,0.2-2.1,0.2c-1.6,0-2.9-0.5-3.9-1.4c-1-0.9-1.4-2.1-1.4-3.7c0-1.6,0.5-3,1.6-4.1
		c1.1-1.1,2.5-1.7,4.3-1.7c1.2,0,2.3,0.4,3.1,1.2C390.2,457.8,390.6,458.9,390.6,460.2"/>
	<path class="st2" d="M400.2,459.5c0-0.3-0.1-0.7-0.4-0.9c-0.2-0.3-0.6-0.4-1.2-0.4c-0.9,0-1.7,0.6-2.1,1.8h3.6L400.2,459.5
		 M403.3,460.2c0,0.5,0,0.9-0.2,1.6h-6.9c0,1.8,0.8,2.7,2.5,2.7c0.5,0,1.1-0.1,1.8-0.3c0.7-0.2,1.4-0.5,2.1-0.8l-0.6,2.7
		c-0.5,0.2-1,0.4-1.6,0.5c-0.6,0.2-1.3,0.2-2,0.2c-1.7,0-3-0.5-3.9-1.4c-1-0.9-1.4-2.1-1.4-3.7c0-1.6,0.5-3,1.6-4.1
		c1.1-1.1,2.5-1.7,4.3-1.7c1.2,0,2.3,0.4,3.1,1.2C402.9,457.8,403.3,458.9,403.3,460.2"/>
	<path class="st2" d="M420.7,456.8l-0.2,2.5c-0.2-0.2-0.7-0.3-1.4-0.6c-0.7-0.2-1.2-0.3-1.6-0.3c-0.5,0-0.7,0.2-0.7,0.5
		c0,0.3,0.4,0.8,1.1,1.4c0.7,0.5,1.2,0.9,1.5,1.2c0.6,0.7,0.9,1.4,0.9,2.1c0,1-0.3,1.8-1.1,2.4c-0.7,0.7-1.6,0.9-2.8,0.9
		c-1.4,0-2.6-0.3-3.6-1l0.5-2.3c0.2,0.1,0.6,0.2,1.2,0.5c0.7,0.2,1.2,0.3,1.6,0.3c0.7,0,1-0.2,1-0.6c0-0.3-0.3-0.7-0.9-1.2
		c-1.1-0.9-1.8-1.4-2.1-1.9s-0.5-0.9-0.5-1.4c0-1.1,0.4-1.9,1.1-2.5c0.7-0.6,1.6-0.9,2.8-0.9C418.5,455.8,419.6,456.1,420.7,456.8"
		/>
	<path class="st2" d="M422.7,466.6l2.2-15.9h3.2l-0.9,6.5c1.2-1,2.5-1.5,3.6-1.5c0.9,0,1.6,0.3,2.1,0.9c0.5,0.6,0.7,1.3,0.7,2.3
		c0,0.2,0,0.7-0.2,1.8l-0.8,5.9h-3.2l0.8-6.1c0.1-0.7,0.2-1.1,0.2-1.2c0-0.8-0.3-1.2-0.9-1.2c-0.8,0-1.7,0.5-2.6,1.4l-1,7.1H422.7"
		/>
	<path class="st2" d="M439.8,461.9c0,0.7,0.2,1.2,0.6,1.7c0.4,0.4,0.9,0.6,1.5,0.6c0.8,0,1.5-0.3,2-1c0.5-0.7,0.7-1.6,0.7-2.5
		c0-0.7-0.2-1.3-0.6-1.7c-0.4-0.4-0.9-0.6-1.5-0.6c-0.8,0-1.5,0.4-2,1.1C440,460.1,439.8,461,439.8,461.9 M436.5,461.7
		c0-1.7,0.6-3.1,1.8-4.2c1.2-1.1,2.6-1.6,4.3-1.6c1.5,0,2.8,0.5,3.7,1.4c0.9,0.9,1.4,2.1,1.4,3.6c0,1.7-0.6,3.1-1.7,4.3
		c-1.1,1.2-2.6,1.7-4.3,1.7c-1.5,0-2.8-0.5-3.7-1.4C437,464.5,436.5,463.2,436.5,461.7"/>
	<polygon class="st2" points="450.1,456 453.1,456 454.4,462.2 457.6,456 459.4,456 460.5,462.2 463.6,456 466.9,456 460.9,466.8 
		458.9,466.8 457.7,461.3 454.8,466.8 452.9,466.8 	"/>
	<path class="st2" d="M471.2,466.6h-3.1l1.5-10.6h3.1l-0.2,1.6c0.7-0.7,1.2-1.2,1.5-1.5c0.3-0.2,0.7-0.3,1-0.3
		c0.6,0,1.2,0.4,1.8,1.2l-1.4,2.9c-0.5-0.8-0.9-1.2-1.4-1.2c-0.5,0-0.9,0.2-1.2,0.6c-0.4,0.3-0.6,0.7-0.7,1L471.2,466.6"/>
	<path class="st2" d="M480.9,461.9c0,0.7,0.2,1.2,0.6,1.7c0.4,0.4,0.9,0.6,1.5,0.6c0.8,0,1.4-0.3,2-1c0.5-0.7,0.7-1.6,0.7-2.5
		c0-0.7-0.2-1.3-0.6-1.7c-0.4-0.4-0.9-0.6-1.5-0.6c-0.8,0-1.4,0.4-1.9,1.1C481.1,460.1,480.9,461,480.9,461.9 M477.6,461.7
		c0-1.7,0.6-3.1,1.8-4.2c1.2-1.1,2.6-1.6,4.3-1.6c1.5,0,2.8,0.5,3.7,1.4c1,0.9,1.4,2.1,1.4,3.6c0,1.7-0.5,3.1-1.6,4.3
		c-1.1,1.2-2.6,1.7-4.3,1.7c-1.5,0-2.8-0.5-3.8-1.4C478.1,464.5,477.6,463.2,477.6,461.7"/>
	<path class="st2" d="M494.8,461.9c0,0.7,0.2,1.2,0.6,1.7c0.4,0.4,0.9,0.6,1.5,0.6c0.8,0,1.4-0.3,1.9-1c0.5-0.7,0.7-1.6,0.7-2.5
		c0-0.7-0.2-1.3-0.6-1.7c-0.4-0.4-0.9-0.6-1.5-0.6c-0.8,0-1.5,0.4-2,1.1C495.1,460.1,494.8,461,494.8,461.9 M491.6,461.7
		c0-1.7,0.6-3.1,1.8-4.2c1.2-1.1,2.6-1.6,4.3-1.6c1.5,0,2.8,0.5,3.7,1.4c0.9,0.9,1.4,2.1,1.4,3.6c0,1.7-0.6,3.1-1.7,4.3
		c-1.1,1.2-2.5,1.7-4.3,1.7c-1.5,0-2.8-0.5-3.7-1.4C492.1,464.5,491.6,463.2,491.6,461.7"/>
	<path class="st2" d="M505.3,466.6l1.5-10.6h3.2l-0.2,1.4c0.8-0.7,1.4-1.1,1.9-1.3c0.5-0.2,0.9-0.3,1.5-0.3c1.5,0,2.4,0.7,2.7,2.1
		c0.8-0.8,1.5-1.3,2-1.6c0.6-0.3,1.1-0.5,1.8-0.5c0.9,0,1.7,0.3,2.2,0.9c0.6,0.6,0.8,1.4,0.8,2.5c0,0.2,0,0.7-0.1,1.5l-0.8,5.9h-3.2
		l0.8-6c0-0.4,0.1-0.8,0.1-1.3c0-0.3,0-0.6-0.2-0.9c-0.2-0.2-0.4-0.4-0.7-0.4c-0.8,0-1.7,0.6-2.6,1.7l-0.9,6.8h-3.2l0.8-5.9
		c0-0.5,0.1-0.8,0.1-1.2c0-0.9-0.4-1.4-1-1.4c-0.4,0-0.7,0.1-1.2,0.4c-0.3,0.2-0.8,0.7-1.4,1.3l-1,6.8H505.3"/>
</g>
</svg>
